<svg xmlns="http://www.w3.org/2000/svg" width="226" height="67"><g transform="translate(0 -985.362)"><path fill="none" d="M-884.368 1312.766h16v16h-16z"/><path d="M-881.225 1320.461v.978h-.56c-.712 0-.86.02-1.057.132a.447.447 0 00-.207.223c-.071.138-.17.39-.097.656l.022.079.132.256c.356.696.98 1.239 1.653 1.44.043.018.082.024.114.034v.974l-.098-.019c-1.051-.205-2.02-.964-2.552-2-.19-.37-.244-.576-.244-.924 0-.602.143-.99.479-1.313.416-.4.858-.512 2.034-.513z" fill="#1c1f26" stroke="#1c1f26" stroke-width=".33"/><path d="M-877.057 1318.824h-1.09c-1.456.019-1.72.041-1.961.154-.39.183-.779.522-.982.854-.168.276-.172.345-.172 3.133 0 2.646.01 2.869.148 3.098.286.476.776.843 1.323.99v0c.3.08 3.342.076 3.673 0 1.237-.304 1.986-1.882 1.056-2.225-.45-.166-.907.113-.907.555 0 .117-.079.27-.194.372-.194.173-.204.173-1.796.173s-1.6 0-1.795-.173l-.195-.173V1320.36l.195-.173c.195-.173.204-.173 1.796-.173h1.6l.195.187c.108.102.194.272.194.378 0 .241.256.532.518.59.276.062.633-.115.754-.374.21-.45-.227-1.296-.868-1.677-.343-.205-.623-.278-1.492-.291z" fill="#1c1f26" stroke="#1c1f26" stroke-width=".192"/><rect width=".877" height="4.004" x="-9.386" y="1580.343" ry=".421" transform="matrix(.8231 .56789 -.55029 .83498 0 0)" fill="#1b8e2c"/><rect width=".877" height="4.004" x="-7.935" y="1579.377" ry=".421" transform="matrix(.8231 .56789 -.55029 .83498 0 0)" fill="#1b8e2c"/><path d="M-874.37 1321.174a.338.338 0 00-.226.098c-.117.102-.117.105-.13.7l-.014.598h-1.124l-.121.123c-.074.076-.122.17-.122.236 0 .07.048.161.122.237l.121.123h1.124l.013.618c.014.618.014.619.13.721.157.137.3.13.448-.022l.122-.123v-1.194H-872.856l.122-.123c.148-.152.155-.298.021-.457-.1-.12-.1-.118-.707-.132l-.607-.017v-1.145l-.122-.123c-.074-.076-.147-.117-.22-.12zm4.16 0a.338.338 0 00-.227.098c-.116.102-.117.105-.13.7l-.014.598H-871.704l-.122.123c-.073.076-.122.17-.122.236 0 .07.049.161.122.237l.122.123H-870.581l.014.618c.013.618.013.619.13.721.156.137.299.13.448-.022l.121-.123v-1.194H-868.697l.122-.123c.149-.152.155-.298.02-.457-.1-.12-.1-.118-.706-.132l-.607-.017v-1.145l-.122-.123c-.074-.076-.147-.117-.22-.12z" fill="#ec3030" stroke="#ec3030" stroke-width=".108"/><rect width="226.395" height="67.08" y="985.282" ry="0" fill="#1c1f26"/><g transform="translate(276.286 966.447) scale(.08763)"><path d="M-1919.27 398.46c-1.215.078-2.366.162-3.372.256-29.68 2.787-45.868 10.3-64.756 30.055-21.57 22.558-29.027 42.847-30.922 84.13-.164 3.58-.284 6.295-.408 8.669v3.121h-28.451c-19.23 0-34.711 15.48-34.711 34.709 0 19.23 15.481 34.71 34.71 34.71h28.452v42.534c0 .697-.05 1.38-.129 2.055v140.59a36.688 36.688 0 00-.166 3.427v56.686c0 1.156.06 2.298.166 3.426v1.22l.149.061c2.293 17.665 17.308 31.225 35.617 31.225 19.906 0 35.933-16.025 35.933-35.932V799.08l.17-18.676c.37-40.646.968-95.568 1.33-122.049l.204-14.814v-49.43h28.906c19.23 0 34.71-15.48 34.71-34.71s-15.48-34.71-34.71-34.71h-28.764l.244-12.224c.308-15.278 1.298-19.737 2.13-22.498 0 0 1.893-5.795 4.337-8.16 2.965-2.87 4.446-3.894 10.19-5.223 2.278-.687 19.1-1.553 39.687-2.045.188 0 .31-.01.496-.014.7.038 1.403.059 2.111.059h25.631c21.216 0 38.295-17.08 38.295-38.295 0-19.176-13.955-34.97-32.304-37.83zm-905.65 63.67c-50.862 0-92.497 38.079-98.087 87.399-5.128.27-14.05.635-24.791.984-30.702.998-38.84 1.823-52.448 5.32-25.888 6.655-47.73 24.61-57.894 47.59-5.425 12.268-8.669 22.755-8.711 42.496 1.768 22.335 2.723 23.689 11.5 44.801 24.005 49.727 67.986 88.001 118.83 103.412 6.87 2.083 13.436 3.787 14.59 3.787.146 0 .285.01.422.027 9.435 44.732 48.97 78.11 96.59 78.11h141.308c54.7 0 98.735-44.036 98.735-98.735v-1.2c.02-.476.037-.952.037-1.432 0-17.801-14.332-32.131-32.133-32.131h-7.785c-17.801 0-32.131 14.33-32.131 32.13 0 .607.02 1.208.053 1.805-.181 15.148-12.428 27.29-27.62 27.29h-140.566a27.566 27.566 0 01-27.627-27.628V560.982a27.567 27.567 0 0127.627-27.627h140.566a27.558 27.558 0 0127.56 25.766h.042a33.127 33.127 0 00-.043 1.642c0 17.801 14.332 32.131 32.133 32.131h7.785c17.801 0 32.13-14.33 32.13-32.13 0-.633-.022-1.26-.058-1.884-1.051-53.774-44.67-96.75-98.705-96.75zm1280.69 72.106l-48.248.031c-59.156.041-96.972 1.367-105.846 3.713-7.385 1.952-18.694 6.09-27.756 12.365-6.112 4.234-12.035 9.773-16.998 15.01-6.913 7.294-10.764 13.968-14.462 21.836-2.954 6.281-4.422 13.767-5.866 19.697-4.77 19.6-4.798 175.256-.03 194.822 3.893 15.991 13.654 36.252 29.331 49.079 12.81 10.48 32.826 20.108 42.77 21.6 2.664.398 13.776 1.618 23.062 2.054 27.042 1.27 122.62 1.256 130.48-.02 8.993-1.459 14.296-4.489 19.897-11.371 5.65-6.943 8.907-16.833 8.907-27.055 0-13.384-6.691-25.033-17.346-30.197-3.967-1.923-7.958-2.542-15.62-3.496l-125.613-.701c-14.416-.08-26.364-11.119-27.164-25.329-.25-1.96-.346-4.532-.422-7.455h-.107v-4.101c-.025-.99-.04-1.762-.074-2.846l.074-.308v-20.059h210.143c3.298-.254 5.363-.033 6.808-.297 6.706.282 12.393-2.161 15.477-4.035 2.86-1.738 5.83-4.479 7.6-6.25 7.58-7.584 9.177-17.898 9.177-59.275 0-31.462-1.303-46.517-5.38-62.217-6.248-24.055-19.116-42.914-39.1-57.303-6.871-4.905-24.873-16.09-45.807-17.402zm-804.387 1.549l-52.107.008h-17.545c-20.545 0-37.086 16.54-37.086 37.086 0 20.545 16.54 37.084 37.086 37.084h129.758l.1.065a20.169 20.169 0 0118.635 20.154v4.683c0 .634-.031 1.26-.088 1.88.03 3.28.046 7.003.156 11.734l.353 18.783-58.484.738c-40.45.511-69.807 1.114-91.555 2.469v.08c-54.777 1.855-98.245 46.901-98.306 101.877-.001 56.36 45.549 102.05 101.738 102.05a97.58 97.58 0 001.793-.091c24.555.487 60.215.983 93.324 1.031l88.13.127c.458.032.918.053 1.378.066 18.574 0 33.65-14.76 33.727-33.01l.023-.04.744-72.145c1.17-113.478-.585-147.166-7.05-168.326-4.413-14.45-7.014-26.904-22.396-42.356-13.907-13.972-30.213-20.783-62.822-23.947zm678.022 74.326h127.209a23.769 23.769 0 0123.756 22.023c.472 3.858.665 8.996.83 16.5l.416 18.934h-177.565l.508-18.4c.203-7.339.477-12.576 1.059-16.624a23.772 23.772 0 0123.787-22.433zm-1253.059 4.226v117.774c-5.807-2.271-19.687-9.661-26.074-14.018-5.95-3.767-12.225-8.653-18.129-14.115-3.745-3.476-7.261-7.11-10.387-10.738-7.717-8.222-14.2-17.91-18.279-27.319-5.859-12.184-7.197-25.281-3.611-35.34 3.487-9.727 11.201-15.514 20.949-15.714.818-.013 1.646.014 2.482.08l27.368-.315zm504.67 131.096h149.459v53.334h-28.472c-.27.01-.54.018-.811.018h-120.176a26.585 26.585 0 01-16.539-5.723l-.29-.148c-.11-.114-.207-.224-.313-.338a26.593 26.593 0 01-9.534-20.467 26.618 26.618 0 0126.676-26.677z" fill="#8b8c91"/><g fill="#ec3030"><g transform="translate(-455.687 -263.178)"><rect ry="36.485" y="809.272" x="-752.961" height="315.965" width="69.004"/><rect transform="rotate(-90)" ry="36.485" y="-876.849" x="-1002.687" height="315.965" width="69.004"/></g><g transform="translate(-103.722 -263.178)"><rect ry="36.485" y="809.272" x="-752.961" height="315.965" width="69.004"/><rect transform="rotate(-90)" ry="36.485" y="-876.849" x="-1002.687" height="315.965" width="69.004"/></g></g><rect transform="matrix(.83017 .55752 -.56064 .82806 0 0)" ry="19.573" y="1737.692" x="-2115.968" height="185.94" width="41.143" fill="#1b8e2c"/><rect transform="matrix(.83017 .55752 -.56064 .82806 0 0)" ry="19.573" y="1692.832" x="-2047.901" height="185.94" width="41.143" fill="#1b8e2c"/></g></g></svg>