<svg xmlns="http://www.w3.org/2000/svg" width="40" height="40" viewBox="0 0 10.583 10.583"><g transform="translate(0 -286.417)"><circle cx="5.292" cy="291.708" r="5.292" fill="#3bb44b"/><path d="M1.83 294.696l.33-.973.058-.173-.126-.25a3.427 3.427 0 01-.388-1.43 3.552 3.552 0 01.366-1.81c.2-.404.415-.697.739-1.01.301-.292.568-.48.933-.658a3.641 3.641 0 011.082-.339 4.507 4.507 0 011.045-.007c.42.065.76.17 1.119.345 1.118.547 1.854 1.573 2.026 2.822.025.179.025.713 0 .885-.033.242-.09.489-.154.686a3.668 3.668 0 01-2.957 2.477 3.734 3.734 0 01-1.13-.007 3.724 3.724 0 01-1.034-.33l-.148-.073-.955.303-1.016.322-.061.02zm4.024-.01a3.097 3.097 0 001.696-.87 3.025 3.025 0 00.265-4.02 3.405 3.405 0 00-.853-.76 3.094 3.094 0 00-2.876-.162 3.084 3.084 0 00-1.747 2.183 3.024 3.024 0 00.432 2.254l.093.145-.191.567c-.106.312-.19.567-.186.567.003 0 .265-.082.581-.183.316-.1.583-.182.592-.182.009 0 .085.04.17.088a3.11 3.11 0 001.162.388c.183.025.674.016.862-.015zm.351-1.325a5.441 5.441 0 01-.935-.335c-.466-.234-.91-.652-1.327-1.25-.216-.31-.323-.552-.355-.806a.983.983 0 01.28-.834c.111-.115.162-.135.345-.136.167 0 .212.014.252.08.048.077.337.78.337.82 0 .078-.055.167-.225.363-.065.075-.07.087-.064.139.013.095.241.41.434.598.104.102.288.248.404.32.142.09.44.224.497.224.064 0 .083-.018.29-.278a.917.917 0 01.167-.177c.065-.004.11.01.28.085.264.117.605.29.628.317.028.034.012.253-.027.376a.575.575 0 01-.22.292c-.227.17-.523.248-.76.202z" fill="#fff"/></g></svg>