<svg xmlns="http://www.w3.org/2000/svg" width="40" height="40" viewBox="0 0 10.583 10.583"><g transform="translate(0 -286.417)"><circle cx="5.292" cy="291.708" r="5.292" fill="#38539b"/><path d="M4.328 293.728l-.004-1.76-.352-.004-.352-.004.004-.619.004-.619.352-.004.352-.004v-.506c0-.624.023-.768.164-1.055.168-.339.45-.561.848-.667.16-.042.167-.043.854-.05l.692-.006V289.645l-.45.005-.451.005-.065.043c-.12.079-.126.11-.132.592l-.004.425h.559c.307 0 .559.006.559.011 0 .028-.115 1.135-.122 1.182l-.01.053H5.79v3.529H4.332z" fill="#fff"/></g></svg>