<svg xmlns="http://www.w3.org/2000/svg" xmlns:xlink="http://www.w3.org/1999/xlink" width="40" height="40" viewBox="0 0 10.583 10.583"><defs><linearGradient id="a"><stop offset="0" stop-color="#7a21b7"/><stop offset="1" stop-color="#db8c3f"/></linearGradient><linearGradient id="b"><stop offset="0" stop-color="#c42e64"/><stop offset="1" stop-color="#c01876" stop-opacity="0"/></linearGradient><linearGradient xlink:href="#a" id="c" gradientUnits="userSpaceOnUse" x1="5.575" y1="296.622" x2="5.386" y2="291.141"/><radialGradient xlink:href="#b" id="d" cx="5.67" cy="291.708" fx="5.67" fy="291.708" r="5.292" gradientUnits="userSpaceOnUse" gradientTransform="matrix(1.5 .01786 -.01084 .91065 .328 25.963)"/></defs><g transform="translate(0 -286.417)"><circle cx="5.292" cy="291.708" r="5.292" fill="url(#c)"/><circle cx="5.292" cy="291.708" r="5.292" fill="url(#d)"/><path d="M3.935 294.735a1.726 1.726 0 01-1.6-1.605c-.005-.074-.005-2.628 0-2.702a1.724 1.724 0 011.608-1.606c.082-.005 2.616-.005 2.698 0 .399.027.763.183 1.058.454a1.73 1.73 0 01.55 1.154c.004.076.004 2.622 0 2.698a1.718 1.718 0 01-1.609 1.608c-.067.005-2.638.004-2.705 0zm2.752-.46a1.265 1.265 0 001.091-1.038c.018-.105.017-.044.017-1.456 0-1.432 0-1.362-.019-1.471a1.256 1.256 0 00-1.094-1.028c-.05-.006-.128-.007-1.392-.007-1.279 0-1.342 0-1.392.007a1.272 1.272 0 00-.832.46 1.268 1.268 0 00-.273.662c-.007.066-.007 2.684 0 2.75a1.258 1.258 0 001.122 1.122l.056.005c.007.001.61.002 1.341.001 1.234 0 1.332 0 1.375-.007zm-1.464-.903a1.594 1.594 0 01-1.06-.471 1.584 1.584 0 01-.013-2.232 1.592 1.592 0 011.28-.478c.389.037.739.204 1.007.482a1.588 1.588 0 01-.28 2.443 1.6 1.6 0 01-.934.255zm.204-.462a1.135 1.135 0 00.986-1.33 1.14 1.14 0 00-.41-.692 1.138 1.138 0 00-.86-.238c-.262.036-.488.149-.668.334a1.13 1.13 0 00-.316.915c.034.277.147.512.336.694a1.133 1.133 0 00.932.316zm1.528-2.5a.343.343 0 01-.288-.414.345.345 0 01.26-.259.399.399 0 01.145 0 .34.34 0 01.266.37.343.343 0 01-.383.303z" fill="#fcfcfc"/></g></svg>