<svg xmlns="http://www.w3.org/2000/svg" width="40" height="40" viewBox="0 0 10.583 10.583"><g transform="translate(0 -286.417)"><circle cx="5.292" cy="291.708" r="5.292" fill="#fff"/><path d="M3.438 296.924a5.383 5.383 0 01-2.567-2.099c-.2-.31-.5-.945-.61-1.296a5.542 5.542 0 01.002-3.367c.522-1.64 1.765-2.923 3.351-3.46a5.06 5.06 0 013.355 0c1.977.67 3.378 2.474 3.59 4.626a5.707 5.707 0 01-.238 2.208c-.11.346-.411.984-.61 1.29a5.276 5.276 0 01-2.08 1.877c-.603.302-.825.354-.954.222-.051-.054-.053-.083-.066-1.05-.012-.954-.015-1-.071-1.162a1.714 1.714 0 00-.157-.32c-.066-.1-.088-.153-.067-.16.017-.004.15-.029.296-.053.512-.086 1.003-.299 1.313-.57.344-.301.594-.786.686-1.33.145-.858.019-1.535-.383-2.053l-.098-.126.046-.17c.063-.235.061-.65-.003-.93-.077-.33-.09-.348-.227-.348-.256 0-.662.152-1.066.401l-.267.164-.196-.046c-.396-.095-.597-.115-1.126-.115-.528 0-.729.02-1.126.115l-.195.046-.267-.164c-.404-.249-.81-.401-1.067-.401-.137 0-.15.019-.226.349-.065.278-.066.694-.003.928l.046.171-.098.126c-.323.417-.473.947-.437 1.552.056.967.354 1.588.959 1.996.288.194.708.35 1.132.418.326.052.306.034.2.183-.093.13-.212.43-.213.536 0 .137-.602.24-.894.153-.27-.08-.462-.241-.65-.545a1.316 1.316 0 00-.472-.458c-.308-.17-.689-.113-.543.08.017.022.094.088.17.146.239.181.385.371.54.7.164.35.299.508.538.633.25.13.443.165.82.149.18-.008.359-.022.397-.032l.069-.017v.55c0 .329-.01.572-.026.602-.034.065-.155.129-.243.127-.04 0-.158-.035-.264-.076zm-.083-1.596c-.066-.05-.032-.121.059-.121.04 0 .088.019.106.042.029.035.027.047-.014.078-.06.045-.092.045-.15 0zm.39-.043c-.063-.041.002-.117.1-.117.096 0 .121.04.062.1-.045.048-.106.054-.162.017zm-.83-.039c-.045-.055-.013-.117.06-.117.075 0 .144.065.124.118-.018.05-.144.049-.184 0zm-.348-.2a.151.151 0 01-.03-.091c0-.046.014-.06.058-.06.074 0 .118.046.118.122 0 .045-.014.06-.058.06a.14.14 0 01-.088-.031zm-.261-.347c-.022-.05-.022-.073.001-.097.044-.045.115.008.125.094.006.055-.003.069-.045.069-.031 0-.064-.026-.081-.066zm-.21-.301c-.025-.083.027-.12.088-.063.07.065.065.118-.01.118-.04 0-.067-.02-.078-.055zm-.227-.208c-.01-.015-.004-.041.012-.058.032-.032.104 0 .122.056.013.039-.11.041-.134.003z" fill="#161621"/></g></svg>