<svg xmlns="http://www.w3.org/2000/svg" width="40" height="40" viewBox="0 0 10.583 10.583"><g transform="translate(0 -286.417)"><circle cx="5.292" cy="291.708" r="5.292" fill="#53a7e7"/><path d="M3.874 294.568a3.716 3.716 0 01-1.56-.498l-.1-.06.22.005c.132.003.276 0 .353-.01a2.611 2.611 0 001.222-.465l.098-.07-.092-.008a1.274 1.274 0 01-1.03-.703c-.095-.194-.104-.177.09-.17.107.005.2.002.26-.008.15-.024.157-.03.06-.054-.13-.032-.34-.14-.46-.237a1.291 1.291 0 01-.46-.771c-.018-.106-.025-.24-.012-.24a1.368 1.368 0 00.52.147h.044l-.037-.026a1.927 1.927 0 01-.318-.34 1.172 1.172 0 01-.2-.658.986.986 0 01.02-.3c.032-.147.127-.388.149-.378.004.002.046.047.094.101a3.72 3.72 0 001.397.98c.345.136.671.21 1.078.248l.083.008-.01-.06a2.443 2.443 0 01-.009-.261c.001-.165.006-.22.027-.298a1.296 1.296 0 011.45-.947c.257.042.488.153.666.322l.07.067.09-.021c.173-.041.391-.12.556-.202.19-.094.187-.096.115.06a1.448 1.448 0 01-.49.558 2.65 2.65 0 00.59-.146.704.704 0 01.118-.04.794.794 0 01-.077.112 3.066 3.066 0 01-.443.457l-.102.08v.143c-.001 1.167-.563 2.302-1.48 2.991-.691.52-1.57.764-2.49.69z" fill="#fff"/></g></svg>